<?xml version="1.0" standalone="no"?>
<!DOCTYPE svg PUBLIC "-//W3C//DTD SVG 20010904//EN"
 "http://www.w3.org/TR/2001/REC-SVG-20010904/DTD/svg10.dtd">
<svg version="1.0" xmlns="http://www.w3.org/2000/svg"
 width="444.000000pt" height="285.000000pt" viewBox="0 0 444.000000 285.000000"
 preserveAspectRatio="xMidYMid meet">
<metadata>
Created by potrace 1.16, written by Peter Selinger 2001-2019
</metadata>
<g transform="translate(0.000000,285.000000) scale(0.100000,-0.100000)"
fill="#000000" stroke="none">
<path d="M2033 2779 c-85 -16 -142 -63 -177 -147 -16 -37 -19 -70 -19 -157 1
-87 -2 -114 -14 -127 -15 -16 -14 -24 2 -84 11 -40 30 -80 47 -100 25 -28 30
-45 38 -118 10 -96 12 -101 81 -191 33 -43 49 -74 47 -89 -1 -12 5 -34 14 -48
16 -24 16 -33 3 -101 -8 -41 -19 -146 -25 -233 -6 -88 -12 -184 -15 -214 -2
-30 -5 -80 -6 -110 -1 -54 -1 -54 -30 60 -61 243 -82 392 -83 575 -1 94 3 192
7 218 l8 48 -46 -35 c-45 -35 -66 -43 -309 -112 -129 -36 -149 -54 -181 -157
-28 -92 -63 -241 -94 -397 -12 -58 -23 -113 -26 -123 -8 -38 244 -178 415
-232 134 -42 265 -58 410 -51 391 19 657 123 914 359 l59 54 -21 84 c-43 177
-149 411 -203 451 -14 11 -77 30 -139 44 -143 30 -230 57 -299 95 -59 31 -68
32 -52 1 17 -33 13 -205 -9 -357 -22 -151 -63 -327 -108 -470 l-29 -90 -6 45
c-4 25 -11 138 -17 252 -6 114 -15 244 -21 288 -8 70 -7 83 8 107 10 14 17 36
15 47 -1 13 26 56 72 115 69 87 75 98 81 155 8 78 23 136 35 136 20 0 59 163
41 174 -7 5 -11 48 -11 115 0 95 -3 113 -26 160 -54 108 -208 183 -331 160z"/>
<path d="M1143 2601 c-78 -36 -120 -138 -108 -262 5 -44 3 -69 -4 -73 -26 -17
2 -138 39 -166 14 -11 21 -33 26 -83 6 -62 5 -70 -17 -94 -32 -34 -82 -56
-209 -88 -58 -15 -124 -37 -147 -47 -41 -19 -44 -23 -72 -112 -15 -50 -45
-169 -66 -265 l-38 -174 24 -18 c38 -29 199 -114 259 -137 138 -54 347 -84
449 -65 l45 8 -51 33 c-28 18 -54 39 -57 47 -4 13 30 191 72 371 15 66 17 95
10 155 -7 54 -6 81 3 99 7 14 11 31 10 39 -1 7 26 50 60 94 58 75 63 86 75
159 7 43 19 84 27 93 25 25 41 111 27 145 -8 19 -10 50 -5 88 9 83 -9 136 -65
193 -76 76 -196 101 -287 60z m16 -746 c28 -38 49 -76 46 -84 -3 -8 1 -24 9
-36 13 -20 13 -33 1 -102 -8 -44 -19 -169 -26 -279 -6 -109 -12 -200 -14 -202
-1 -1 -16 60 -33 135 -49 218 -65 351 -59 488 4 105 13 163 22 153 2 -2 26
-34 54 -73z"/>
<path d="M2850 2598 c-78 -40 -110 -109 -110 -241 0 -42 -5 -85 -11 -95 -15
-24 13 -122 45 -157 17 -19 25 -41 30 -92 l6 -68 -37 -32 c-41 -34 -41 -39 -3
-45 18 -2 25 2 28 17 8 47 14 45 66 -26 30 -41 52 -77 50 -80 -2 -4 19 -53 46
-110 50 -105 56 -106 41 -1 -6 39 -4 55 6 63 7 7 13 22 13 34 0 12 28 59 62
104 57 75 64 80 76 64 30 -39 -3 -374 -54 -560 -9 -32 -15 -72 -15 -89 1 -17
-5 -37 -13 -43 -8 -7 -18 -26 -21 -42 -6 -28 -25 -41 -25 -18 0 6 -26 -11 -57
-38 -32 -27 -79 -64 -105 -83 -27 -18 -48 -38 -48 -43 0 -6 41 -8 113 -4 334
20 540 98 756 286 62 54 63 56 58 96 -15 104 -121 357 -170 403 -15 14 -62 29
-142 47 -126 29 -198 53 -254 87 l-34 21 6 64 c4 38 15 78 26 97 27 43 45 124
31 141 -5 6 -9 53 -9 103 1 81 -1 95 -25 136 -64 109 -218 158 -326 104z"/>
<path d="M610 2409 c-65 -26 -91 -77 -101 -199 -8 -101 -1 -146 32 -189 12
-15 19 -40 19 -69 0 -37 7 -54 40 -98 22 -29 40 -62 40 -74 0 -25 4 -25 33 3
13 12 37 29 53 38 41 22 94 104 94 145 0 19 9 51 21 73 11 22 20 55 20 73 0
18 0 61 0 94 -1 103 -29 149 -116 190 -53 25 -94 29 -135 13z"/>
<path d="M3505 2413 c-70 -19 -105 -81 -105 -186 0 -40 -4 -77 -10 -83 -12
-12 5 -77 30 -113 10 -14 21 -48 24 -75 9 -70 26 -92 90 -110 30 -9 58 -21 61
-26 11 -18 22 -11 62 43 29 37 42 66 46 102 4 27 16 67 27 90 18 37 19 52 12
146 -10 120 -22 147 -87 184 -42 25 -113 38 -150 28z"/>
<path d="M3718 1864 c2 -24 -1 -86 -7 -138 -12 -92 -11 -97 13 -165 14 -39 33
-101 41 -138 l16 -68 -66 -62 c-73 -71 -70 -74 48 -44 135 35 286 119 366 205
l24 25 -17 68 c-22 88 -98 248 -124 262 -11 6 -60 20 -109 31 -48 12 -111 31
-139 44 l-51 24 5 -44z"/>
<path d="M520 1879 c-14 -10 -71 -32 -127 -48 -56 -15 -113 -35 -126 -44 -27
-17 -45 -76 -92 -287 l-25 -115 22 -17 c69 -53 273 -138 332 -138 21 0 26 5
26 23 0 13 11 73 24 133 23 104 23 113 9 189 -16 89 -21 243 -9 293 9 37 1 39
-34 11z"/>
<path d="M359 738 c0 -2 -46 -129 -102 -283 l-103 -280 64 -3 c36 -2 67 -1 69
2 3 3 13 29 23 58 l17 53 104 3 104 3 18 -61 17 -60 71 0 c64 0 70 2 64 18 -3
9 -47 132 -97 272 -50 140 -95 261 -101 268 -6 7 -35 12 -78 12 -38 0 -69 -1
-70 -2z m105 -221 c16 -50 31 -100 34 -109 4 -16 -4 -18 -68 -18 -64 0 -72 2
-68 18 19 69 64 202 68 202 3 0 18 -42 34 -93z"/>
<path d="M787 733 c-4 -3 -7 -132 -7 -285 l0 -278 138 0 c75 0 154 5 174 10
107 30 154 171 80 245 -15 15 -39 32 -55 37 l-27 10 39 29 c55 39 71 92 45
145 -26 53 -60 73 -135 84 -74 11 -243 13 -252 3z m241 -109 c28 -19 29 -67 2
-94 -15 -15 -33 -20 -70 -20 l-50 0 0 65 0 65 48 0 c27 0 57 -7 70 -16z m17
-230 c19 -13 25 -25 25 -54 0 -52 -26 -73 -100 -78 l-60 -4 0 76 0 76 55 0
c34 0 65 -6 80 -16z"/>
<path d="M1425 716 c-58 -27 -94 -63 -127 -126 -20 -38 -23 -60 -23 -145 0
-84 4 -107 22 -141 50 -94 119 -136 234 -142 96 -5 162 21 219 85 49 56 70
118 70 208 0 128 -46 211 -142 259 -71 36 -180 37 -253 2z m210 -119 c57 -57
71 -178 30 -256 -35 -69 -130 -92 -196 -48 -38 25 -68 96 -68 157 0 19 8 57
17 85 22 65 65 95 134 95 43 0 55 -5 83 -33z"/>
<path d="M1914 726 c-3 -8 -4 -104 -2 -213 3 -184 5 -201 27 -246 35 -72 82
-99 182 -105 94 -5 155 13 200 61 50 52 60 109 57 323 l-3 189 -40 3 c-88 7
-83 18 -87 -214 l-3 -206 -28 -24 c-30 -26 -92 -33 -127 -14 -39 21 -45 49
-50 255 l-5 200 -58 3 c-44 2 -59 -1 -63 -12z"/>
<path d="M2457 733 c-4 -3 -7 -28 -7 -55 l0 -48 80 0 80 0 0 -230 0 -230 65 0
65 0 0 230 0 230 80 0 80 0 0 55 0 55 -218 0 c-120 0 -222 -3 -225 -7z"/>
<path d="M3213 733 c-20 -8 -18 -387 2 -444 34 -95 106 -134 233 -127 93 5
133 25 175 84 37 53 48 133 45 329 l-3 160 -60 0 -60 0 -5 -201 c-5 -207 -7
-216 -50 -251 -26 -21 -96 -16 -126 10 -34 30 -44 91 -44 267 1 74 1 145 0
158 0 20 -5 22 -47 21 -27 0 -54 -3 -60 -6z"/>
<path d="M3872 727 c-74 -23 -122 -105 -108 -181 10 -55 56 -98 151 -144 105
-51 125 -81 82 -118 -39 -34 -116 -33 -183 1 -27 14 -50 25 -52 25 -2 0 -2
-28 0 -62 l3 -61 40 -14 c26 -9 71 -13 130 -11 139 5 202 46 212 141 11 93
-23 138 -148 198 -79 38 -99 55 -99 85 0 50 96 71 185 39 22 -8 41 -15 43 -15
1 0 2 25 2 55 0 50 -2 56 -26 65 -33 13 -190 11 -232 -3z"/>
</g>
</svg>
